<svg xmlns="http://www.w3.org/2000/svg" width="46.627" height="45.122" viewBox="0 0 46.627 45.122">
  <path id="layer" d="M54.622,38.561a.753.753,0,0,0-.473-.7L39.914,32.169,54.15,26.475a.752.752,0,0,0,0-1.4L31.588,16.054a.754.754,0,0,0-.558,0L8.469,25.078a.752.752,0,0,0,0,1.4L22.7,32.169,8.469,37.863a.752.752,0,0,0,0,1.4L22.7,44.953,8.469,50.647a.752.752,0,0,0,0,1.4L31.03,61.069a.754.754,0,0,0,.558,0L54.15,52.044a.752.752,0,0,0,0-1.4L39.914,44.953,54.15,39.26a.753.753,0,0,0,.473-.7ZM10.773,25.777l20.536-8.214,20.536,8.214L31.309,33.991ZM51.845,51.346,31.309,59.56,10.773,51.346l13.956-5.582,6.3,2.52a.754.754,0,0,0,.558,0l6.3-2.52ZM31.309,46.775,10.773,38.561l13.956-5.582,6.3,2.52a.754.754,0,0,0,.558,0l6.3-2.52,13.956,5.582Z" transform="translate(-7.996 -16)" fill="#fff"/>
</svg>
